<svg xmlns="http://www.w3.org/2000/svg" viewBox="0 0 297.64 99.21" width="297.64" height="99.21"><style>.st2{display:none}.st3{display:inline}.st4{fill:#002f5c}.st6{fill:#6aa343}.st7{fill:#008d36}.st8{fill:#74a75b}.st9{fill:#51b4b3}.st10{fill:#6fb372}.st11{fill:#97bf0d}.st12{fill:#39b6b8}.st13{fill:#57ab27}.st14{fill:#6db586}.st15{fill:#58972d}.st16{fill:#00b0df}.st17{fill:#8fb05a}.st18{fill:#78ad5e}.st19{fill:#55b3a2}.st20{fill:#699765}.st21{fill:#8ca786}.st22{fill:#919b9a}.st23{fill:#9c88bb}.st24{fill:#77a378}.st25{fill:#57aa81}.st26{fill:#74b57f}.st27{fill:#74b03c}.st30{fill:#73a36c}.st31{fill:#9194a5}.st33{display:inline;fill:none}.st34{font-family:&apos;SaarPro&apos;}.st35{font-size:14px}.st36{display:inline;fill:#002f5c}</style><g id="Logo"><g id="Claim-D" class="st2"><g class="st3"><path class="st4" d="M20.88 95.54l-.02 2.2h-.72l-.03-1.71c-.63-.29-1.78-.52-2.62-.52-2.31 0-3.9 1.73-3.9 4.97 0 3.2 1.55 4.79 3.99 4.79 1.35 0 2.4-.47 2.72-.69v-3.05h-2.79l-.02-.61h3.61v3.98c-.5.35-1.81 1.06-3.61 1.06-2.88 0-4.76-1.79-4.76-5.48 0-3.69 1.9-5.66 4.76-5.66 1.31 0 2.75.4 3.39.72zm3.53 4.56c.41-1.16 1.3-2.13 2.79-2.13v.69c-2.02 0-2.77 1.74-2.77 3.03h-.02v4.04h-.76v-7.04l-1.06-.03v-.52h1.82v1.96zm10.47 1.78c0 3.11-1.73 4.09-3.47 4.09-1.76 0-3.46-.98-3.46-4.09 0-2.88 1.73-3.96 3.46-3.96 1.72-.01 3.47 1.08 3.47 3.96zm-6.14 0c0 2.71 1.38 3.47 2.68 3.47 1.32 0 2.66-.77 2.66-3.47 0-2.54-1.39-3.34-2.66-3.34-1.29 0-2.68.8-2.68 3.34zm14.81 1.51c0 1.45-1.02 2.51-2.59 2.51-.93 0-1.9-.38-2.43-.89l.23-.6c.54.5 1.41.86 2.14.86 1.03 0 1.87-.67 1.87-1.82 0-2.23-3.2-1.85-3.2-3.79 0-1.44 2.14-1.58 2.14-3 0-.78-.66-1.53-1.9-1.53-1.19 0-2.1.69-2.1 2.53v9.2c0 1.29-.6 1.97-1.76 2.05l-.06-.61c.57-.08 1.06-.54 1.06-1.45v-8.17l-1.09-.03v-.52h1.09v-.4c0-2.2 1.12-3.26 2.91-3.26 1.78 0 2.63 1.04 2.63 2.16 0 1.79-2.23 2.02-2.23 2.98 0 1.33 3.29 1.18 3.29 3.78zm7.45 1.45a4.53 4.53 0 0 1-2.92 1.06c-1.75 0-3.44-.95-3.44-3.98 0-3.02 1.68-4.01 3.35-4.01 1.71 0 3 1.06 3 3.37l-5.57 1.19c.2 2.16 1.47 2.75 2.77 2.75 1.06 0 1.9-.4 2.56-.93l.25.55zm-5.62-2.95l4.77-1.09c0-1.53-.96-2.28-2.2-2.28-1.26 0-2.57.78-2.57 3.37zm9.81-3.98c.8 0 1.76.18 2.36.46l-.02 1.61h-.63v-1.15c-.15-.09-.96-.31-1.75-.31-1.09 0-1.96.43-1.96 1.35 0 1.97 4.73 1.16 4.73 3.86 0 1.33-1.15 2.14-2.89 2.14-1.04 0-2.05-.29-2.74-.86l.02-1.47h.64l.02 1.1c.49.43 1.3.61 2.05.61 1.25 0 2.16-.5 2.16-1.45 0-2.22-4.73-1.24-4.73-3.89 0-1.36 1.24-2 2.74-2zm14.36 6.93a4.53 4.53 0 0 1-2.92 1.06c-1.74 0-3.44-.95-3.44-3.98 0-3.02 1.68-4.01 3.35-4.01 1.71 0 3 1.06 3 3.37l-5.57 1.19c.2 2.16 1.47 2.75 2.77 2.75 1.06 0 1.9-.4 2.56-.93l.25.55zm-5.62-2.95l4.77-1.09c0-1.53-.96-2.28-2.2-2.28-1.25 0-2.57.78-2.57 3.37zm13.76-1.21v5.05h-.76v-4.91c0-1.55-.57-2.28-1.81-2.28-1.85 0-2.75 1.52-2.75 2.52v4.67h-.77v-7.04l-1.06-.03v-.52h1.74l.05 1.58c.47-.96 1.45-1.79 3.02-1.79 1.55 0 2.34.88 2.34 2.75zm6.01 4.98s-.61.23-1.45.23c-1.07 0-1.91-.49-1.91-2.07v-5.1h-1.27l.06-.58h1.21v-1.56l.77-.34v1.9h2.4v.58h-2.4v5.1c0 1.16.64 1.47 1.33 1.47.63 0 1.21-.21 1.21-.21l.05.58zm3.66-7.75c.8 0 1.76.18 2.36.46l-.02 1.61h-.63v-1.15c-.15-.09-.96-.31-1.74-.31-1.09 0-1.96.43-1.96 1.35 0 1.97 4.73 1.16 4.73 3.86 0 1.33-1.15 2.14-2.89 2.14-1.04 0-2.05-.29-2.74-.86l.02-1.47h.64l.02 1.1c.49.43 1.3.61 2.05.61 1.25 0 2.16-.5 2.16-1.45 0-2.22-4.73-1.24-4.73-3.89-.01-1.36 1.23-2 2.73-2zm8.28 7.75s-.61.23-1.45.23c-1.07 0-1.91-.49-1.91-2.07v-5.1H91l.06-.58h1.21v-1.56l.77-.34v1.9h2.4v.58h-2.4v5.1c0 1.16.64 1.47 1.33 1.47.63 0 1.21-.21 1.21-.21l.06.58zm7.05-.82a4.53 4.53 0 0 1-2.92 1.06c-1.74 0-3.44-.95-3.44-3.98 0-3.02 1.68-4.01 3.35-4.01 1.71 0 3 1.06 3 3.37l-5.57 1.19c.2 2.16 1.47 2.75 2.77 2.75 1.06 0 1.9-.4 2.56-.93l.25.55zm-5.61-2.95l4.77-1.09c0-1.53-.96-2.28-2.2-2.28-1.26 0-2.57.78-2.57 3.37zm13.71-1.21v5.05h-.77v-4.94c0-1.55-.57-2.25-1.81-2.25-1.87 0-2.75 1.48-2.75 2.49v4.7h-.77V94.99h-1.06v-.46l1.82-.18v5.25c.49-.92 1.47-1.67 2.98-1.67 1.57 0 2.36.88 2.36 2.75zm6 4.98s-.61.23-1.45.23c-1.07 0-1.91-.49-1.91-2.07v-5.1h-1.27l.06-.58h1.21v-1.56l.77-.34v1.9h2.4v.58h-2.4v5.1c0 1.16.64 1.47 1.33 1.47.63 0 1.21-.21 1.21-.21l.05.58zm6.08-7.52v7.59h-.76v-7.01l-1.1-.03v-.55h1.86zm-.44-2.26c-.29 0-.54-.18-.54-.54 0-.37.25-.55.54-.55.28 0 .54.18.54.55a.53.53 0 0 1-.54.54zm13.74 4.8v5.05h-.77v-4.91c0-1.55-.6-2.28-1.64-2.28-1.67 0-2.52 1.64-2.52 2.56v4.64h-.77v-4.91c0-1.55-.6-2.28-1.62-2.28-1.68 0-2.54 1.65-2.54 2.56v4.64h-.77v-7.04l-1.06-.03v-.52h1.74l.06 1.52c.49-.92 1.42-1.73 2.8-1.73 1.13 0 1.85.6 2.07 1.84.47-.96 1.42-1.84 2.86-1.84 1.38-.02 2.16.83 2.16 2.73zm13.12 0v5.05h-.77v-4.91c0-1.55-.6-2.28-1.64-2.28-1.67 0-2.53 1.64-2.53 2.56v4.64h-.76v-4.91c0-1.55-.6-2.28-1.62-2.28-1.68 0-2.54 1.65-2.54 2.56v4.64h-.77v-7.04l-1.06-.03v-.52h1.74l.06 1.52c.49-.92 1.42-1.73 2.8-1.73 1.13 0 1.85.6 2.07 1.84.47-.96 1.42-1.84 2.86-1.84 1.38-.02 2.16.83 2.16 2.73zm8.27 4.16a4.53 4.53 0 0 1-2.92 1.06c-1.74 0-3.44-.95-3.44-3.98 0-3.02 1.68-4.01 3.35-4.01 1.71 0 3 1.06 3 3.37l-5.57 1.19c.2 2.16 1.47 2.75 2.77 2.75 1.06 0 1.9-.4 2.56-.93l.25.55zm-5.62-2.95l4.77-1.09c0-1.53-.96-2.28-2.2-2.28-1.25 0-2.57.78-2.57 3.37zm8.44-1.79c.41-1.16 1.3-2.13 2.79-2.13v.69c-2.02 0-2.77 1.74-2.77 3.03h-.02v4.04h-.77v-7.04l-1.06-.03v-.52h1.82v1.96zm8.99-1.96v7.59h-.77v-7.01l-1.1-.03v-.55h1.87zm-.45-2.26c-.29 0-.54-.18-.54-.54 0-.37.25-.55.54-.55.28 0 .54.18.54.55 0 .35-.26.54-.54.54zm13.75 4.8v5.05h-.76v-4.91c0-1.55-.6-2.28-1.64-2.28-1.67 0-2.52 1.64-2.52 2.56v4.64h-.77v-4.91c0-1.55-.6-2.28-1.62-2.28-1.68 0-2.54 1.65-2.54 2.56v4.64h-.77v-7.04l-1.06-.03v-.52h1.74l.06 1.52c.49-.92 1.42-1.73 2.8-1.73 1.13 0 1.85.6 2.07 1.84.47-.96 1.42-1.84 2.86-1.84 1.37-.02 2.15.83 2.15 2.73zm14.25 4.46v.64s-.18.06-.4.06c-1.04 0-1.7-.29-2.46-1.42l-2.39-3.55h-1.91v4.87h-.81V95.02h.81v5.2h1.91l3.58-5.2h.87l-3.81 5.52 2.39 3.5c.54.78 1.16 1.12 1.94 1.12.14.01.28-.02.28-.02zm2.36-10.84v10.25c0 .47.28.64.66.64.47 0 .78-.17.78-.17l.05.64s-.49.21-1.06.21c-.63 0-1.19-.41-1.19-1.16V94.36l.76-.06zm8.8 10.54a4.53 4.53 0 0 1-2.92 1.06c-1.74 0-3.44-.95-3.44-3.98 0-3.02 1.68-4.01 3.35-4.01 1.71 0 3 1.06 3 3.37l-5.57 1.19c.2 2.16 1.47 2.75 2.77 2.75 1.06 0 1.9-.4 2.56-.93l.25.55zm-5.62-2.95l4.77-1.09c0-1.53-.96-2.28-2.2-2.28-1.25 0-2.57.78-2.57 3.37zm8.5-3.75v7.59h-.77v-7.01l-1.1-.03v-.55h1.87zm-.44-2.26c-.29 0-.54-.18-.54-.54 0-.37.25-.55.54-.55.28 0 .54.18.54.55a.53.53 0 0 1-.54.54zm9.21 4.8v5.05h-.77v-4.91c0-1.55-.57-2.28-1.81-2.28-1.85 0-2.75 1.52-2.75 2.52v4.67h-.77v-7.04l-1.06-.03v-.52h1.74l.05 1.58c.47-.96 1.45-1.79 3.01-1.79 1.57 0 2.36.88 2.36 2.75zm8.27 4.16a4.53 4.53 0 0 1-2.92 1.06c-1.74 0-3.44-.95-3.44-3.98 0-3.02 1.68-4.01 3.35-4.01 1.71 0 3 1.06 3 3.37l-5.57 1.19c.2 2.16 1.47 2.75 2.77 2.75 1.06 0 1.9-.4 2.56-.93l.25.55zm-5.62-2.95l4.77-1.09c0-1.53-.96-2.28-2.2-2.28-1.25 0-2.57.78-2.57 3.37zm13.69-1.21v5.05h-.77v-4.91c0-1.55-.57-2.28-1.81-2.28-1.85 0-2.75 1.52-2.75 2.52v4.67h-.77v-7.04l-1.06-.03v-.52h1.74l.05 1.58c.47-.96 1.45-1.79 3.01-1.79 1.56 0 2.36.88 2.36 2.75z"/></g></g><path class="st4" d="M53.44 79.94l-6.33-22.83c-.39-1.55-1.27-2.4-2.83-2.4h-8.12c-.22 0-.37.15-.37.37v2.47c0 .22.15.31.37.33l2.23.32-6.01 21.65c-.06.21.04.37.26.37h3.39c.22 0 .42-.16.48-.37l1.62-5.83h9.53l1.63 5.83c.07.22.26.37.48.37h3.4c.23 0 .3-.16.27-.28zm-14.26-9.71l3.22-11.6h1.01l3.22 11.6h-7.45zm37.34 9.71l-6.33-22.83c-.39-1.55-1.27-2.4-2.83-2.4h-8.12c-.22 0-.37.15-.37.37v2.47c0 .22.15.31.37.33l2.23.32-6.01 21.65c-.06.21.04.37.26.37h3.39c.22 0 .42-.16.48-.37l1.62-5.83h9.53l1.63 5.83c.07.22.26.37.48.37h3.4c.23 0 .3-.16.27-.28zm-14.26-9.71l3.22-11.6h1.01l3.22 11.6h-7.45zm75.91 9.71l-6.33-22.83c-.39-1.55-1.27-2.4-2.83-2.4h-8.12c-.22 0-.37.15-.37.37v2.47c0 .22.15.31.37.33l2.23.32-6.01 21.65c-.06.21.04.37.26.37h3.39c.22 0 .42-.16.48-.37l1.62-5.83h9.53l1.63 5.83c.07.22.26.37.48.37h3.4c.23 0 .3-.16.27-.28zm-14.26-9.71l3.22-11.6h1.01l3.22 11.6h-7.45zm-8.71 6h-8.8v-21.2c0-.18-.14-.32-.32-.32h-3.58c-.18 0-.32.15-.32.32V79.9c0 .18.14.32.32.32h12.7c.18 0 .32-.14.32-.32v-3.35c0-.18-.14-.32-.32-.32zm57.95-21.52h-7.85c-.18 0-.32.15-.32.32V79.9c0 .18.14.32.32.32h7.85c5.87 0 9.68-4.19 9.68-10.77v-3.98c0-6.57-3.8-10.76-9.68-10.76zm5.45 14.75c0 3.85-1.96 6.85-5.45 6.85h-3.95V58.62h3.95c3.49 0 5.45 3 5.45 6.85v3.99zm-18.82-14.75h-3.56c-.18 0-.32.14-.32.32v19.48l-9.21-19.53s-.13-.27-.38-.27h-5.13c-.18 0-.32.14-.32.32V79.9c0 .18.14.32.32.32h3.55c.18 0 .32-.14.32-.32V60.77l9.26 19.29s.09.16.22.16h5.25c.18 0 .32-.14.32-.32V55.03c0-.18-.14-.32-.32-.32zM99.01 79.93l-.39-2.66s-.03-.19-.24-.19c0 0-.43.04-.71.04-.99 0-1.66-.56-2.12-1.27l-3.77-5.95c3.17-.88 5.22-3.52 5.22-7.61 0-4.54-3.1-7.58-7.37-7.58H77.6c-.3 0-.51.2-.51.51v2.21c0 .3.2.46.51.46l2.38.32V79.9c0 .18.14.32.32.32h3.44c.18 0 .32-.14.32-.32v-9.68h3.35l4.33 7.22c1.27 2.12 2.71 3.17 4.65 3.17 1.22 0 2.1-.26 2.46-.39.01 0 .19-.09.16-.29zm-9.38-13.42h-5.57v-7.89h5.57c1.83 0 3.31 1.37 3.31 3.84.01 2.78-1.54 4.05-3.31 4.05zM17.45 61.1c0-1.88 1.62-3.2 4.37-3.2 1.35 0 2.74.11 3.67.33l.47 3.13c.04.22.11.37.4.37h2.25c.22 0 .37-.15.37-.37l.22-5.05c.04-.66-.29-.91-.99-1.13-2.2-.7-4.27-.99-6.61-.99-5.63 0-8.84 3.07-8.84 6.88 0 8.77 13.02 6.63 13.02 12.7 0 1.12-1.09 3.12-4.42 3.12-1.9 0-3.6-.31-4.88-1.11l-.3-3.06c-.04-.18-.04-.4-.33-.4h-2.33c-.26 0-.4.15-.4.44l-.18 5.19c-.04.51.07.8.55 1.1 1.9 1.17 4.76 1.68 7.58 1.68 5.74 0 9.14-2.96 9.14-7.65-.02-8.1-12.76-6.81-12.76-11.98z" id="Wortmarke"/><g id="Bildmarke"><path d="M251.37 4.76c0 .6-.48 1.08-1.08 1.08-.6 0-1.08-.48-1.08-1.08 0-.6.49-1.08 1.08-1.08.6 0 1.09.48 1.08 1.08z" fill="#43b39d"/><path class="st6" d="M258.66 5.52c0-.67-.54-1.22-1.22-1.21-.67 0-1.21.54-1.21 1.22 0 .67.54 1.21 1.21 1.22.67-.02 1.22-.56 1.22-1.23z"/><path class="st7" d="M232.74 9.09c0-.54-.44-.98-.98-.98s-.98.44-.98.98c.01.54.44.98.98.98s.97-.44.98-.98z"/><path class="st8" d="M240.24 9.85a1.33 1.33 0 1 0-2.659-.001 1.33 1.33 0 0 0 2.659.001z"/><path class="st9" d="M247.95 10.6c0-1.04-.84-1.89-1.89-1.89-1.04 0-1.89.84-1.89 1.89 0 1.04.85 1.89 1.89 1.89 1.05 0 1.9-.85 1.89-1.89z"/><path class="st10" d="M255.79 11.35a2.58 2.58 0 0 0-5.16-.01 2.58 2.58 0 0 0 2.58 2.58c1.43 0 2.58-1.15 2.58-2.57z"/><path class="st6" d="M262.08 12.1c.01-.95-.77-1.71-1.71-1.72-.95 0-1.72.77-1.72 1.72s.77 1.71 1.71 1.71c.95 0 1.72-.76 1.72-1.71zm6.8.75c.01-.75-.61-1.36-1.36-1.36-.75 0-1.35.61-1.36 1.36 0 .75.61 1.36 1.36 1.36.76 0 1.36-.61 1.36-1.36z"/><path class="st7" d="M275.66 13.6c0-.55-.44-.98-.98-.98s-.98.44-.98.98.44.98.99.98c.53 0 .97-.43.97-.98z"/><path class="st6" d="M221.35 14.17c0-.54-.43-.98-.97-.98s-.98.44-.98.98.43.98.97.98.98-.44.98-.98z"/><path class="st8" d="M229.02 14.92a1.5 1.5 0 0 0-1.49-1.49c-.82 0-1.48.66-1.48 1.48s.66 1.48 1.49 1.48c.81.01 1.47-.65 1.48-1.47z"/><path class="st11" d="M237.18 15.67a2.49 2.49 0 1 0-4.98.01c0 1.37 1.12 2.49 2.49 2.49a2.505 2.505 0 0 0 2.49-2.5z"/><path class="st10" d="M244.38 16.42c0-1.41-1.14-2.55-2.55-2.55s-2.55 1.14-2.55 2.55 1.14 2.55 2.55 2.55c1.42 0 2.56-1.14 2.55-2.55z"/><path class="st12" d="M251.54 17.18c0-1.41-1.14-2.55-2.55-2.55s-2.55 1.14-2.55 2.55 1.14 2.55 2.55 2.55 2.55-1.15 2.55-2.55z"/><path class="st11" d="M258.68 17.93c0-1.4-1.13-2.54-2.53-2.54a2.55 2.55 0 0 0-2.54 2.54 2.535 2.535 0 0 0 5.07 0z"/><path class="st13" d="M265.84 18.68c0-1.41-1.14-2.54-2.54-2.54-1.41 0-2.55 1.14-2.55 2.54 0 1.41 1.14 2.54 2.55 2.55 1.4-.01 2.54-1.15 2.54-2.55z"/><path class="st6" d="M272.56 19.43a2.11 2.11 0 1 0-2.11 2.11c1.16 0 2.11-.95 2.11-2.11z"/><path class="st14" d="M279.32 20.18c0-.95-.77-1.72-1.72-1.73-.96 0-1.72.77-1.73 1.72.01.95.78 1.73 1.73 1.73.95.01 1.72-.76 1.72-1.72z"/><path class="st15" d="M285.84 20.93c0-.6-.48-1.08-1.08-1.08-.6 0-1.09.48-1.09 1.09 0 .6.49 1.08 1.08 1.09.6-.01 1.09-.5 1.09-1.1z"/><path class="st6" d="M181.48 16.24c0-.61-.49-1.1-1.1-1.1-.6 0-1.1.49-1.09 1.1 0 .61.49 1.1 1.09 1.1.61-.01 1.1-.49 1.1-1.1z"/><path class="st15" d="M180.18 28.68c0-.61-.49-1.1-1.1-1.09-.61 0-1.1.49-1.09 1.09 0 .61.49 1.1 1.09 1.1.6 0 1.09-.49 1.1-1.1z"/><path class="st13" d="M189.52 16.99c0-1.1-.89-1.98-1.99-1.98-1.09 0-1.98.89-1.98 1.98a1.985 1.985 0 0 0 3.97 0z"/><path class="st10" d="M196.67 17.74c0-1.09-.88-1.98-1.98-1.98a1.98 1.98 0 1 0-.01 3.96c1.11 0 1.99-.88 1.99-1.98z"/><path class="st16" d="M203.6 18.49c0-.97-.78-1.76-1.76-1.76-.97 0-1.77.79-1.76 1.76 0 .97.79 1.76 1.76 1.76.97.01 1.77-.79 1.76-1.76z"/><path class="st8" d="M210.34 19.25c0-.74-.6-1.34-1.34-1.34-.75 0-1.34.6-1.35 1.35 0 .74.6 1.34 1.34 1.33.75-.01 1.35-.6 1.35-1.34z"/><path class="st17" d="M218 20c.01-1.02-.83-1.86-1.85-1.86-1.03 0-1.86.83-1.87 1.86 0 1.03.84 1.86 1.86 1.85 1.03.01 1.87-.83 1.86-1.85z"/><path class="st11" d="M225.56 20.75A2.256 2.256 0 1 0 223.3 23c1.25.01 2.25-1.01 2.26-2.25z"/><path class="st10" d="M233.07 21.5a2.61 2.61 0 0 0-2.62-2.62c-1.45 0-2.62 1.17-2.63 2.62 0 1.45 1.17 2.62 2.63 2.62 1.45 0 2.62-1.18 2.62-2.62z"/><path class="st12" d="M240.53 22.25c0-1.61-1.3-2.92-2.92-2.92-1.61 0-2.92 1.31-2.92 2.92 0 1.61 1.31 2.92 2.93 2.92 1.6 0 2.91-1.3 2.91-2.92z"/><path class="st18" d="M247.67 23a2.9 2.9 0 0 0-2.91-2.91 2.915 2.915 0 1 0 .01 5.83c1.6 0 2.91-1.31 2.9-2.92z"/><path class="st10" d="M254.82 23.75c0-1.6-1.3-2.9-2.9-2.9-1.61 0-2.9 1.3-2.9 2.9 0 1.6 1.3 2.9 2.9 2.91 1.6 0 2.9-1.3 2.9-2.91z"/><path class="st17" d="M261.92 24.51c0-1.57-1.28-2.85-2.86-2.85-1.58 0-2.86 1.28-2.86 2.85 0 1.58 1.27 2.86 2.86 2.85 1.58 0 2.86-1.28 2.86-2.85z"/><path class="st19" d="M268.78 25.26c0-1.41-1.15-2.55-2.56-2.56-1.41 0-2.55 1.14-2.55 2.55s1.14 2.56 2.55 2.56 2.56-1.14 2.56-2.55z"/><path class="st20" d="M275.92 26.01c0-1.41-1.14-2.55-2.55-2.55-1.4 0-2.55 1.14-2.55 2.55s1.14 2.56 2.55 2.55c1.41 0 2.55-1.14 2.55-2.55z"/><path class="st18" d="M282.65 26.76c0-1.18-.95-2.13-2.13-2.13s-2.13.96-2.13 2.13c0 1.18.96 2.14 2.13 2.13 1.18.01 2.13-.95 2.13-2.13z"/><path class="st15" d="M288.89 27.52c0-.67-.54-1.22-1.21-1.21-.67 0-1.21.54-1.21 1.21 0 .67.54 1.21 1.21 1.21.67 0 1.21-.55 1.21-1.21z"/><path class="st13" d="M184.88 22.82c0-.87-.7-1.58-1.58-1.57a1.575 1.575 0 0 0 0 3.15c.88-.01 1.58-.71 1.58-1.58z"/><path class="st11" d="M193.03 23.57a2.57 2.57 0 1 0-5.14 0c0 1.42 1.15 2.58 2.57 2.57 1.42.01 2.57-1.15 2.57-2.57z"/><path class="st16" d="M200.3 24.32c0-1.49-1.2-2.69-2.69-2.69s-2.69 1.2-2.69 2.69c0 1.48 1.2 2.68 2.69 2.69 1.49 0 2.69-1.2 2.69-2.69zm7.05.75c0-1.43-1.16-2.58-2.59-2.58s-2.58 1.16-2.59 2.58a2.59 2.59 0 0 0 5.18 0z"/><path class="st21" d="M214.46 25.83c0-1.41-1.14-2.55-2.55-2.54-1.4 0-2.54 1.14-2.55 2.54 0 1.41 1.14 2.55 2.55 2.55a2.554 2.554 0 0 0 2.55-2.55z"/><path class="st17" d="M221.69 26.58c0-1.45-1.17-2.62-2.62-2.62-1.44 0-2.62 1.18-2.62 2.62 0 1.45 1.18 2.62 2.62 2.62s2.62-1.18 2.62-2.62z"/><path class="st11" d="M228.89 27.33c0-1.47-1.19-2.66-2.67-2.66-1.47 0-2.66 1.19-2.66 2.66 0 1.47 1.19 2.66 2.66 2.66 1.48 0 2.66-1.19 2.67-2.66z"/><path class="st9" d="M236.18 28.08c0-1.54-1.26-2.8-2.8-2.8-1.54 0-2.8 1.26-2.8 2.8 0 1.54 1.26 2.8 2.8 2.8 1.54 0 2.8-1.25 2.8-2.8z"/><path class="st11" d="M243.34 28.83a2.804 2.804 0 1 0-5.61 0c0 1.55 1.26 2.81 2.81 2.81 1.54 0 2.8-1.26 2.8-2.81zm7.11.76a2.77 2.77 0 0 0-2.77-2.77 2.78 2.78 0 0 0-2.77 2.76 2.77 2.77 0 0 0 2.77 2.77c1.53 0 2.77-1.24 2.77-2.76z"/><path class="st8" d="M257.64 30.34c0-1.55-1.26-2.81-2.81-2.81s-2.81 1.26-2.81 2.81 1.26 2.81 2.81 2.81c1.56 0 2.81-1.26 2.81-2.81z"/><path class="st22" d="M264.9 31.09c0-1.6-1.3-2.91-2.91-2.91-1.6 0-2.9 1.3-2.9 2.9a2.904 2.904 0 1 0 5.81.01z"/><path class="st23" d="M271.98 31.84a2.844 2.844 0 0 0-2.84-2.84c-1.56 0-2.84 1.27-2.84 2.84 0 1.57 1.27 2.84 2.84 2.84 1.57 0 2.84-1.27 2.84-2.84z"/><path class="st8" d="M278.84 32.59c0-1.4-1.14-2.54-2.55-2.54s-2.55 1.14-2.55 2.55c0 1.4 1.14 2.54 2.55 2.54s2.55-1.14 2.55-2.55zm6.3.76c0-.93-.76-1.69-1.69-1.69a1.686 1.686 0 0 0 0 3.37c.93 0 1.69-.75 1.69-1.68z"/><path class="st13" d="M188 29.4c0-.98-.79-1.77-1.77-1.77s-1.77.79-1.78 1.77c0 .97.79 1.77 1.78 1.77.98 0 1.77-.79 1.77-1.77z"/><path class="st14" d="M195.87 30.15a2.48 2.48 0 1 0-2.48 2.48c1.36 0 2.47-1.11 2.48-2.48z"/><path class="st16" d="M203.12 30.91a2.58 2.58 0 1 0-5.16 0c0 1.43 1.15 2.58 2.58 2.58 1.42-.01 2.58-1.16 2.58-2.58z"/><path class="st23" d="M210.47 31.66c0-1.54-1.24-2.78-2.78-2.78-1.53 0-2.78 1.25-2.78 2.78 0 1.53 1.24 2.77 2.78 2.77 1.53 0 2.78-1.24 2.78-2.77z"/><path class="st24" d="M217.75 32.41c0-1.6-1.3-2.9-2.9-2.9-1.6 0-2.91 1.3-2.91 2.91 0 1.6 1.3 2.9 2.9 2.91 1.61-.02 2.91-1.32 2.91-2.92z"/><path class="st6" d="M224.8 33.16a2.804 2.804 0 1 0-5.61 0c0 1.55 1.25 2.8 2.81 2.8a2.79 2.79 0 0 0 2.8-2.8z"/><path class="st11" d="M232 33.91c0-1.57-1.27-2.85-2.85-2.85-1.57 0-2.85 1.27-2.85 2.85 0 1.57 1.28 2.85 2.85 2.85s2.85-1.27 2.85-2.85z"/><path class="st25" d="M239.12 34.66a2.815 2.815 0 0 0-5.63 0 2.83 2.83 0 0 0 2.82 2.82c1.55 0 2.81-1.26 2.81-2.82z"/><path class="st18" d="M246.27 35.42c0-1.55-1.26-2.81-2.81-2.81s-2.8 1.26-2.81 2.81a2.819 2.819 0 0 0 2.81 2.81c1.55 0 2.8-1.26 2.81-2.81z"/><path class="st26" d="M253.43 36.17c0-1.56-1.27-2.82-2.82-2.82-1.55 0-2.82 1.26-2.82 2.82 0 1.56 1.27 2.82 2.82 2.82 1.55 0 2.82-1.26 2.82-2.82z"/><path class="st11" d="M260.63 36.92a2.87 2.87 0 0 0-2.87-2.87c-1.58-.01-2.86 1.28-2.87 2.87 0 1.58 1.29 2.87 2.87 2.87 1.58.01 2.87-1.28 2.87-2.87z"/><path class="st8" d="M267.74 37.68c0-1.56-1.26-2.83-2.82-2.83-1.56 0-2.82 1.27-2.82 2.83s1.26 2.83 2.83 2.83a2.836 2.836 0 0 0 2.81-2.83z"/><path class="st19" d="M274.74 38.43a2.67 2.67 0 1 0-2.67 2.67c1.47 0 2.66-1.2 2.67-2.67z"/><path class="st8" d="M281.26 39.18c0-1.13-.91-2.05-2.04-2.04-1.13 0-2.04.91-2.04 2.05 0 1.13.92 2.04 2.05 2.04 1.12 0 2.04-.92 2.03-2.05z"/><path class="st20" d="M197.38 36.73a1.071 1.071 0 0 0-2.14 0 1.071 1.071 0 0 0 2.14 0z"/><path class="st16" d="M205.95 37.49c0-1.38-1.11-2.49-2.48-2.49a2.49 2.49 0 0 0-.01 4.98 2.49 2.49 0 0 0 2.49-2.49z"/><path class="st10" d="M213.53 38.24c0-1.62-1.3-2.92-2.92-2.92-1.61 0-2.92 1.31-2.91 2.92a2.909 2.909 0 0 0 2.91 2.92c1.62 0 2.92-1.3 2.92-2.92z"/><path class="st14" d="M220.54 39a2.776 2.776 0 0 0-2.77-2.77c-1.52 0-2.76 1.24-2.76 2.77a2.77 2.77 0 0 0 2.77 2.77 2.787 2.787 0 0 0 2.76-2.77z"/><path class="st13" d="M227.74 39.75c0-1.56-1.27-2.82-2.82-2.82-1.56 0-2.82 1.27-2.82 2.82 0 1.56 1.26 2.82 2.82 2.82 1.56 0 2.82-1.26 2.82-2.82z"/><path class="st19" d="M234.85 40.5c-.01-1.53-1.25-2.78-2.78-2.78a2.78 2.78 0 0 0 .01 5.56c1.53 0 2.78-1.25 2.77-2.78z"/><path class="st17" d="M242.04 41.26c0-1.55-1.26-2.81-2.81-2.81s-2.81 1.26-2.81 2.81c0 1.56 1.26 2.81 2.81 2.81 1.55-.01 2.8-1.27 2.81-2.81z"/><path class="st11" d="M249.19 42c0-1.55-1.26-2.81-2.81-2.81s-2.81 1.26-2.81 2.81 1.26 2.8 2.81 2.8c1.55.01 2.81-1.24 2.81-2.8z"/><path class="st27" d="M256.34 42.76a2.81 2.81 0 0 0-2.8-2.81c-1.55 0-2.81 1.26-2.81 2.81s1.26 2.8 2.81 2.81a2.81 2.81 0 0 0 2.8-2.81z"/><path class="st13" d="M263.51 43.51a2.825 2.825 0 0 0-5.65 0c0 1.56 1.27 2.83 2.83 2.83s2.82-1.27 2.82-2.83z"/><path class="st8" d="M270.62 44.26a2.78 2.78 0 0 0-2.78-2.78c-1.54 0-2.78 1.24-2.78 2.77s1.24 2.78 2.77 2.78c1.54.01 2.79-1.23 2.79-2.77z"/><path class="st12" d="M277.67 45.01a2.68 2.68 0 1 0-5.36 0 2.68 2.68 0 0 0 5.36 0z"/><path class="st6" d="M283.46 45.77a1.314 1.314 0 1 0-2.63-.01c0 .72.59 1.31 1.31 1.31.73.01 1.32-.58 1.32-1.3z"/><path class="st20" d="M200.41 43.33c0-.65-.52-1.18-1.18-1.18-.65 0-1.17.53-1.18 1.18 0 .65.53 1.18 1.18 1.18.65-.01 1.18-.54 1.18-1.18z"/><path class="st16" d="M209.03 44.08c0-1.46-1.18-2.64-2.64-2.64-1.46 0-2.64 1.18-2.64 2.64a2.631 2.631 0 0 0 2.64 2.64c1.46 0 2.64-1.18 2.64-2.64zm7.28.75a2.77 2.77 0 0 0-2.77-2.77c-1.53 0-2.77 1.24-2.77 2.76a2.77 2.77 0 0 0 2.77 2.77c1.53.01 2.76-1.23 2.77-2.76z"/><path class="st8" d="M223.5 45.58c0-1.55-1.26-2.81-2.81-2.81s-2.81 1.26-2.81 2.81 1.26 2.81 2.81 2.81 2.81-1.26 2.81-2.81z"/><path class="st9" d="M230.65 46.33a2.81 2.81 0 0 0-2.8-2.81c-1.55 0-2.81 1.26-2.81 2.81a2.806 2.806 0 1 0 5.61 0z"/><path class="st11" d="M237.8 47.08a2.804 2.804 0 1 0-5.61 0 2.81 2.81 0 0 0 2.8 2.81 2.8 2.8 0 0 0 2.81-2.81z"/><path class="st10" d="M244.96 47.84a2.804 2.804 0 1 0-5.61 0 2.81 2.81 0 0 0 2.8 2.81c1.55 0 2.81-1.26 2.81-2.81z"/><path class="st13" d="M252.11 48.59c0-1.55-1.26-2.81-2.81-2.81s-2.81 1.26-2.81 2.81 1.26 2.8 2.81 2.8c1.56.01 2.82-1.25 2.81-2.8z"/><path class="st10" d="M259.26 49.34a2.804 2.804 0 1 0-5.61 0c0 1.55 1.26 2.81 2.81 2.81s2.81-1.26 2.8-2.81z"/><path class="st20" d="M266.43 50.09a2.815 2.815 0 1 0-5.63 0c0 1.56 1.27 2.82 2.82 2.82a2.821 2.821 0 0 0 2.81-2.82z"/><path class="st23" d="M273.56 50.84c0-1.54-1.25-2.79-2.79-2.79s-2.8 1.25-2.79 2.79a2.8 2.8 0 0 0 2.79 2.8c1.54 0 2.78-1.25 2.79-2.8zm17.01 8.1a2.57 2.57 0 1 0-5.14 0 2.57 2.57 0 1 0 5.14 0zm-36.69 8.63c0-1.64-1.32-2.97-2.96-2.96-1.64 0-2.96 1.32-2.96 2.96s1.32 2.96 2.96 2.96a2.96 2.96 0 0 0 2.96-2.96z"/><path d="M280.55 51.59a2.62 2.62 0 0 0-2.63-2.63 2.635 2.635 0 1 0 0 5.27c1.45.01 2.63-1.17 2.63-2.64z" fill="#8392b2"/><path class="st20" d="M287.12 52.35c0-1.13-.92-2.06-2.05-2.05-1.13 0-2.05.92-2.05 2.05 0 1.14.92 2.05 2.05 2.05s2.05-.92 2.05-2.05z"/><path class="st6" d="M293.41 53.1c0-.66-.53-1.19-1.19-1.19-.66 0-1.2.54-1.19 1.19 0 .66.53 1.2 1.19 1.2.66-.01 1.19-.54 1.19-1.2z"/><path class="st20" d="M203.45 49.91c0-.71-.58-1.29-1.29-1.29-.71 0-1.29.58-1.29 1.29 0 .71.57 1.29 1.29 1.29.71 0 1.29-.58 1.29-1.29z"/><path class="st6" d="M199.43 56.25c0-.71-.58-1.29-1.29-1.29-.71 0-1.3.58-1.29 1.29 0 .71.58 1.29 1.3 1.29.7 0 1.28-.58 1.28-1.29z"/><path class="st8" d="M211.91 50.66c0-1.43-1.17-2.59-2.59-2.59-1.43 0-2.6 1.16-2.59 2.6a2.59 2.59 0 0 0 2.59 2.59 2.612 2.612 0 0 0 2.59-2.6z"/><path class="st16" d="M219.29 51.41a2.821 2.821 0 0 0-2.83-2.83c-1.56 0-2.83 1.27-2.83 2.83s1.26 2.82 2.82 2.82c1.57.01 2.83-1.26 2.84-2.82z"/><path class="st22" d="M226.32 52.16a2.71 2.71 0 0 0-2.7-2.71c-1.5 0-2.71 1.21-2.71 2.71a2.706 2.706 0 1 0 5.41 0z"/><path class="st10" d="M233.58 52.92c0-1.55-1.26-2.81-2.81-2.81s-2.8 1.26-2.81 2.81c0 1.55 1.26 2.8 2.81 2.8a2.81 2.81 0 0 0 2.81-2.8z"/><path class="st25" d="M240.73 53.67c0-1.55-1.26-2.81-2.81-2.81s-2.81 1.26-2.8 2.81c0 1.55 1.26 2.81 2.81 2.81 1.54 0 2.8-1.26 2.8-2.81z"/><path class="st11" d="M247.88 54.42c0-1.55-1.26-2.8-2.81-2.8-1.56 0-2.81 1.26-2.81 2.81-.01 1.55 1.26 2.8 2.8 2.8 1.57 0 2.82-1.26 2.82-2.81z"/><path class="st10" d="M255.03 55.17a2.81 2.81 0 0 0-2.8-2.81c-1.55 0-2.81 1.26-2.81 2.81s1.25 2.8 2.81 2.8c1.55.01 2.81-1.25 2.8-2.8z"/><path class="st11" d="M262.14 55.92c0-1.52-1.24-2.76-2.76-2.76-1.52 0-2.76 1.24-2.76 2.76 0 1.52 1.24 2.76 2.76 2.76 1.53 0 2.76-1.23 2.76-2.76z"/><path class="st13" d="M269.36 56.68c0-1.56-1.26-2.83-2.83-2.83-1.56 0-2.83 1.27-2.83 2.83s1.27 2.83 2.83 2.83a2.834 2.834 0 0 0 2.83-2.83z"/><path class="st8" d="M276.53 57.43c0-1.57-1.27-2.84-2.84-2.84-1.57 0-2.85 1.27-2.85 2.84 0 1.57 1.28 2.84 2.85 2.84s2.84-1.27 2.84-2.84z"/><path d="M283.41 58.18a2.57 2.57 0 1 0-5.14 0 2.57 2.57 0 1 0 5.14 0z" fill="#6faabc"/><path class="st8" d="M296.22 59.68c0-.59-.48-1.08-1.08-1.08-.59 0-1.08.49-1.07 1.08 0 .59.48 1.08 1.07 1.07.6.01 1.08-.48 1.08-1.07zm-89.16-3.21c0-1.33-1.07-2.4-2.4-2.4a2.41 2.41 0 0 0-2.41 2.4c.01 1.32 1.08 2.4 2.4 2.4 1.34 0 2.41-1.07 2.41-2.4z"/><path class="st23" d="M214.87 57.24c0-1.46-1.18-2.63-2.63-2.64-1.46 0-2.64 1.18-2.64 2.64a2.631 2.631 0 0 0 2.64 2.64c1.46 0 2.63-1.18 2.63-2.64z"/><path class="st16" d="M222.17 57.99c0-1.54-1.24-2.78-2.79-2.78a2.78 2.78 0 0 0 0 5.56 2.77 2.77 0 0 0 2.79-2.78z"/><path class="st21" d="M229.35 58.74a2.804 2.804 0 1 0-5.61.01c0 1.55 1.25 2.81 2.81 2.8 1.54 0 2.8-1.26 2.8-2.81z"/><path class="st30" d="M236.5 59.5a2.806 2.806 0 1 0-5.61 0 2.81 2.81 0 0 0 2.8 2.81c1.55-.01 2.81-1.27 2.81-2.81z"/><path class="st8" d="M243.66 60.25a2.804 2.804 0 1 0-5.61 0 2.81 2.81 0 0 0 2.8 2.81 2.819 2.819 0 0 0 2.81-2.81z"/><path class="st22" d="M250.81 61a2.823 2.823 0 0 0-2.8-2.81c-1.55 0-2.81 1.26-2.81 2.81s1.25 2.8 2.81 2.8c1.54.01 2.8-1.25 2.8-2.8z"/><path class="st31" d="M257.94 61.75a2.791 2.791 0 0 0-5.58 0 2.791 2.791 0 0 0 5.58 0z"/><path class="st20" d="M265.09 62.5a2.791 2.791 0 0 0-5.58 0c.01 1.54 1.25 2.8 2.79 2.79 1.55 0 2.79-1.25 2.79-2.79z"/><path class="st10" d="M272.35 63.26c0-1.6-1.29-2.9-2.9-2.9-1.6 0-2.9 1.3-2.9 2.9 0 1.6 1.3 2.9 2.9 2.9 1.61-.01 2.9-1.31 2.9-2.9z"/><path class="st30" d="M279.53 64.01c0-1.61-1.31-2.92-2.92-2.92-1.61 0-2.92 1.3-2.91 2.92a2.909 2.909 0 0 0 2.91 2.92 2.93 2.93 0 0 0 2.92-2.92z"/><path class="st19" d="M286.25 64.76c0-1.37-1.11-2.49-2.48-2.48a2.48 2.48 0 1 0 2.48 2.48z"/><path class="st6" d="M292.25 65.51c0-.74-.6-1.33-1.34-1.33-.74 0-1.33.59-1.33 1.33 0 .74.6 1.33 1.33 1.33.74 0 1.34-.59 1.34-1.33z"/><path class="st8" d="M209.42 63.07c0-.78-.63-1.41-1.41-1.41-.78 0-1.42.63-1.41 1.41 0 .78.63 1.41 1.41 1.41.78.01 1.41-.63 1.41-1.41z"/><path class="st21" d="M217.76 63.82c0-1.44-1.16-2.6-2.6-2.6-1.43 0-2.6 1.17-2.6 2.6 0 1.44 1.16 2.6 2.59 2.6 1.45 0 2.61-1.16 2.61-2.6z"/><path class="st16" d="M225.07 64.58c0-1.52-1.24-2.76-2.76-2.76a2.75 2.75 0 0 0-2.75 2.76c0 1.52 1.23 2.76 2.75 2.76 1.53-.01 2.77-1.24 2.76-2.76z"/><path class="st10" d="M232.27 65.33a2.81 2.81 0 0 0-2.8-2.81 2.81 2.81 0 0 0-2.81 2.8c0 1.55 1.26 2.8 2.8 2.8 1.55.01 2.81-1.25 2.81-2.79z"/><path class="st31" d="M239.42 66.08c0-1.55-1.25-2.8-2.81-2.81-1.55 0-2.8 1.26-2.8 2.81s1.26 2.8 2.8 2.81a2.819 2.819 0 0 0 2.81-2.81zm7.16.75a2.791 2.791 0 0 0-2.81-2.8 2.79 2.79 0 0 0-2.8 2.8 2.81 2.81 0 0 0 2.8 2.81c1.55-.01 2.8-1.26 2.81-2.81z"/><path class="st22" d="M260.85 68.33a2.77 2.77 0 1 0-5.54 0 2.77 2.77 0 0 0 5.54 0z"/><path class="st30" d="M268.07 69.09c0-1.57-1.27-2.84-2.84-2.84-1.57 0-2.84 1.27-2.83 2.84 0 1.57 1.27 2.84 2.83 2.84a2.85 2.85 0 0 0 2.84-2.84z"/><path class="st11" d="M275.24 69.83c0-1.57-1.28-2.85-2.86-2.85-1.57 0-2.86 1.28-2.86 2.86 0 1.57 1.28 2.85 2.86 2.85a2.86 2.86 0 0 0 2.86-2.86z"/><path class="st9" d="M281.78 70.59c0-1.24-1-2.25-2.24-2.24-1.24 0-2.24 1-2.25 2.24a2.245 2.245 0 1 0 4.49 0z"/><path class="st20" d="M288.17 71.34c0-.82-.66-1.48-1.48-1.48s-1.48.66-1.48 1.48.67 1.48 1.48 1.48c.81 0 1.48-.66 1.48-1.48z"/><path class="st10" d="M212.19 69.65a1.261 1.261 0 1 0-2.518.002 1.261 1.261 0 0 0 2.518-.002z"/><path class="st6" d="M202.63 62.28c0-.7-.56-1.27-1.26-1.26-.69 0-1.26.57-1.26 1.26a1.261 1.261 0 0 0 2.52 0zm17.95 8.12c0-1.38-1.12-2.5-2.49-2.49-1.38 0-2.5 1.12-2.5 2.49.01 1.38 1.12 2.5 2.5 2.5s2.49-1.12 2.49-2.5z"/><path class="st16" d="M228 71.16c0-1.53-1.23-2.77-2.77-2.77a2.77 2.77 0 0 0-2.77 2.77 2.76 2.76 0 0 0 2.76 2.76c1.55 0 2.78-1.24 2.78-2.76zm6.97.75a2.58 2.58 0 0 0-2.58-2.58c-1.43 0-2.58 1.15-2.59 2.58 0 1.42 1.16 2.58 2.58 2.58a2.588 2.588 0 0 0 2.59-2.58zm6.91.75c0-1.29-1.04-2.34-2.34-2.34-1.29 0-2.34 1.05-2.34 2.34 0 1.29 1.05 2.34 2.34 2.34 1.29 0 2.34-1.05 2.34-2.34zm7.4.75c0-1.42-1.16-2.58-2.58-2.58-1.43 0-2.58 1.15-2.58 2.58a2.58 2.58 0 0 0 2.58 2.58c1.42 0 2.57-1.15 2.58-2.58z"/><path class="st31" d="M256.63 74.16c0-1.53-1.25-2.78-2.78-2.78-1.53 0-2.77 1.24-2.77 2.78a2.78 2.78 0 0 0 2.78 2.78c1.52 0 2.77-1.24 2.77-2.78z"/><path class="st10" d="M263.83 74.91c0-1.56-1.27-2.82-2.82-2.82-1.56 0-2.83 1.27-2.83 2.82 0 1.56 1.27 2.83 2.83 2.83 1.55 0 2.82-1.27 2.82-2.83z"/><path class="st26" d="M270.97 75.67c0-1.56-1.26-2.81-2.81-2.81s-2.82 1.26-2.82 2.81 1.26 2.82 2.82 2.82a2.827 2.827 0 0 0 2.81-2.82z"/><path class="st8" d="M277.93 76.42c0-1.45-1.17-2.63-2.63-2.62-1.45 0-2.63 1.18-2.62 2.63 0 1.45 1.18 2.63 2.63 2.62a2.631 2.631 0 0 0 2.62-2.63z"/><path class="st19" d="M283.64 77.17c0-.65-.53-1.17-1.18-1.18-.65 0-1.18.53-1.17 1.18 0 .65.53 1.18 1.18 1.18.64 0 1.17-.53 1.17-1.18z"/><path class="st15" d="M214.89 76.23c0-.57-.46-1.03-1.04-1.03-.57 0-1.03.46-1.03 1.04 0 .57.46 1.03 1.04 1.03.57 0 1.03-.47 1.03-1.04z"/><path class="st6" d="M223.61 76.98c.01-1.44-1.17-2.6-2.6-2.61-1.44 0-2.6 1.17-2.6 2.61s1.16 2.6 2.6 2.6c1.44.01 2.6-1.16 2.6-2.6zm7.12.75a2.57 2.57 0 1 0-5.14 0 2.57 2.57 0 0 0 2.57 2.57c1.42.01 2.57-1.15 2.57-2.57z"/><path class="st15" d="M236.27 78.49c0-.53-.43-.96-.96-.95-.53 0-.96.43-.96.95a.96.96 0 0 0 1.92 0z"/><path class="st7" d="M243.55 79.24c0-.6-.49-1.09-1.09-1.09-.6 0-1.09.49-1.09 1.09 0 .6.49 1.09 1.09 1.09.61 0 1.09-.49 1.09-1.09z"/><path class="st16" d="M252.2 79.99a2.58 2.58 0 0 0-2.58-2.58c-1.43 0-2.58 1.15-2.58 2.58a2.58 2.58 0 1 0 5.16 0z"/><path class="st24" d="M259.61 80.74a2.85 2.85 0 0 0-2.84-2.84 2.85 2.85 0 0 0-2.84 2.84 2.84 2.84 0 0 0 5.68 0z"/><path class="st11" d="M266.75 81.49c0-1.56-1.26-2.82-2.82-2.82-1.55 0-2.82 1.26-2.82 2.82 0 1.56 1.26 2.82 2.82 2.82 1.55.01 2.82-1.26 2.82-2.82z"/><path class="st10" d="M273.95 82.25a2.87 2.87 0 0 0-5.74 0 2.864 2.864 0 0 0 2.87 2.87c1.58 0 2.87-1.29 2.87-2.87z"/><path d="M280.78 83c0-1.41-1.14-2.55-2.55-2.55s-2.55 1.14-2.55 2.55 1.14 2.55 2.55 2.55 2.55-1.15 2.55-2.55z" fill="#6eafb8"/><path class="st20" d="M286.45 83.75a1.071 1.071 0 0 0-2.14 0 1.071 1.071 0 0 0 2.14 0z"/><path class="st15" d="M218.05 82.81c0-.7-.56-1.27-1.27-1.27-.7.01-1.27.57-1.27 1.27 0 .7.57 1.27 1.27 1.27.7 0 1.27-.56 1.27-1.27zm7.43.76c0-.85-.69-1.55-1.55-1.55-.85 0-1.55.69-1.55 1.55 0 .85.69 1.55 1.55 1.55.86-.01 1.55-.7 1.55-1.55z"/><path class="st8" d="M232.21 84.32c0-.61-.5-1.12-1.12-1.12-.61 0-1.12.5-1.11 1.12 0 .62.49 1.12 1.11 1.12.61-.01 1.12-.5 1.12-1.12z"/><path class="st16" d="M255.08 86.57c0-1.4-1.13-2.53-2.53-2.54-1.4 0-2.53 1.13-2.54 2.54 0 1.4 1.14 2.53 2.54 2.54a2.548 2.548 0 0 0 2.53-2.54z"/><path class="st19" d="M262.34 87.32c0-1.46-1.18-2.64-2.64-2.64-1.46 0-2.65 1.18-2.64 2.64 0 1.46 1.18 2.64 2.64 2.64 1.46 0 2.64-1.18 2.64-2.64z"/><path class="st27" d="M269.47 88.08c0-1.45-1.17-2.63-2.63-2.63-1.45 0-2.62 1.17-2.63 2.63a2.64 2.64 0 0 0 2.63 2.63 2.64 2.64 0 0 0 2.63-2.63z"/><path class="st19" d="M276.54 88.83c0-1.4-1.14-2.54-2.54-2.54-1.4 0-2.54 1.14-2.54 2.54 0 1.4 1.14 2.54 2.54 2.54 1.4 0 2.54-1.14 2.54-2.54z"/><path class="st8" d="M283.26 89.58c0-1.16-.94-2.11-2.11-2.11-1.16 0-2.1.94-2.1 2.11 0 1.16.94 2.1 2.1 2.1 1.17 0 2.11-.94 2.11-2.1z"/><path class="st20" d="M289.38 90.33c0-.6-.48-1.08-1.08-1.07-.59 0-1.07.48-1.07 1.07 0 .6.48 1.08 1.07 1.07.6 0 1.08-.47 1.08-1.07z"/><path class="st27" d="M249.36 92.4a1.04 1.04 0 1 0-2.08 0c0 .58.46 1.04 1.04 1.04.57 0 1.03-.47 1.04-1.04z"/><path class="st16" d="M256.69 93.15c0-.67-.54-1.22-1.22-1.22-.68 0-1.23.55-1.22 1.23 0 .68.55 1.22 1.22 1.22.67 0 1.22-.55 1.22-1.23z"/><path class="st25" d="M264.06 93.9c0-.79-.65-1.44-1.44-1.44-.79 0-1.44.65-1.44 1.44a1.44 1.44 0 0 0 2.88 0z"/><path class="st19" d="M271.24 94.66c0-.81-.66-1.47-1.47-1.47-.81 0-1.46.66-1.47 1.47 0 .81.66 1.47 1.47 1.47.81 0 1.48-.66 1.47-1.47z"/><path class="st25" d="M278.42 95.41c0-.83-.67-1.49-1.5-1.49-.82 0-1.49.67-1.49 1.49a1.496 1.496 0 0 0 2.99 0z"/><path class="st20" d="M285.15 96.16c0-.59-.48-1.07-1.07-1.07-.59 0-1.07.49-1.07 1.08 0 .59.48 1.07 1.07 1.07a1.08 1.08 0 0 0 1.07-1.08z"/></g></g><g id="Ministerien"><g id="_x33_-zeilig" class="st2"><path class="st33" d="M12.44 2.78h147.72v41.86H12.44z"/><text transform="translate(12.44 13.235)" class="st3"><tspan x="0" y="0" class="st4 st34 st35">Beispiel</tspan><tspan x="0" y="14.35" class="st4 st34 st35">Beispiel Zeile 2</tspan><tspan x="0" y="28.7" class="st4 st34 st35">Beispiel Zeile 3</tspan></text><path class="st36" d="M6.38 3.68c0 1.57-1.27 2.83-2.83 2.83C1.98 6.51.72 5.24.72 3.68.72 2.11 1.99.85 3.55.85s2.83 1.27 2.83 2.83z"/></g><g id="_x32_-zeilig" class="st2"><path class="st36" d="M6.38 18.03c0 1.57-1.27 2.83-2.83 2.83-1.57 0-2.83-1.27-2.83-2.83 0-1.57 1.27-2.83 2.83-2.83s2.83 1.27 2.83 2.83z"/><path class="st33" d="M12.44 17.13h147.72v30.7H12.44z"/><text transform="translate(12.44 27.585)" class="st36 st34 st35">Landesdenkmalamt</text></g><g id="_x31_-zeilig" class="st2"><path d="M6.38 29.2c0 1.57-1.27 2.83-2.83 2.83-1.57 0-2.83-1.27-2.83-2.83 0-1.57 1.27-2.83 2.83-2.83a2.821 2.821 0 0 1 2.83 2.83z" fill="#00a8bd"/><path class="st33" d="M12.13 28.37h169.6v19.96H12.13z"/><text transform="translate(12.131 41.961)" class="st36 st34" font-size="18.2">Landesdenkmalamt</text></g><g id="_x31_-zeilig_Kopie"><path d="M6.38 29.2c0 1.57-1.27 2.83-2.83 2.83-1.57 0-2.83-1.27-2.83-2.83 0-1.57 1.27-2.83 2.83-2.83a2.821 2.821 0 0 1 2.83 2.83z" fill="#00a8bd"/><path class="st4" d="M15.32 40.52h4.26l.07-1.91h1.44v3.35h-7.65V29.22h1.88v11.3zm15.05 1.28s-.53.36-1.29.36c-.93 0-1.46-.55-1.46-1.51v-.07c-.64.98-1.6 1.6-2.82 1.6-1.46 0-2.6-.91-2.6-2.46 0-3.28 5.19-2.75 5.3-3.71v-.15c0-1.35-.31-1.88-1.66-1.88-1 0-1.89.29-2.62.6l-.46-1.27c.89-.33 1.98-.64 3.31-.64 2.22 0 3.17.87 3.17 2.93v4.61c0 .4.13.55.42.55.25 0 .55-.13.55-.13l.16 1.17zm-2.88-4.44c-1.26.58-3.5.53-3.5 2.15 0 .8.51 1.35 1.38 1.35.95 0 1.71-.67 2.11-1.57v-1.93zm6.61-3.08c.64-.91 1.73-1.6 3.33-1.6 1.86 0 2.95 1 2.95 3.22v6.06H38.6v-5.72c0-1.53-.55-2.26-1.75-2.26-1.8 0-2.66 1.47-2.66 2.37v5.61h-1.77V34.1l-1.17-.05v-1.13h2.73l.12 1.36zm17.69 7.61c-.11.04-.76.25-1.44.25-.86 0-1.53-.4-1.53-1.71v-.03c-.55.96-1.57 1.78-2.99 1.78-1.91 0-3.51-1.37-3.51-4.68 0-3.4 2.17-4.82 4.44-4.82.86 0 1.6.15 2.06.35V28.5l1.78-.13V40.1c0 .6.22.73.56.73.31 0 .55-.13.55-.13l.08 1.19zm-2.97-7.59c-.4-.25-1.13-.42-1.8-.42-1.4 0-2.91 1-2.91 3.5 0 2.64 1.09 3.5 2.38 3.5 1.38 0 2.29-1.33 2.33-2.17V34.3zm12.27 6.57a6.11 6.11 0 0 1-3.8 1.31c-2.29 0-4.35-1.31-4.35-4.75s2.04-4.81 4.33-4.81 3.77 1.42 3.77 4.35l-6.32 1.33c.31 1.84 1.55 2.46 2.86 2.46 1.26 0 2.24-.47 2.95-1.06l.56 1.17zm-1.87-4.77c0-1.37-.84-2.15-2.06-2.15-1.26 0-2.46.86-2.51 3.19l4.57-1.04zm4.71 4.26c.44.36 1.26.58 2.06.58 1.24 0 2.08-.49 2.08-1.4 0-2.15-5.48-1.06-5.48-4.35 0-1.71 1.62-2.55 3.71-2.55 1.06 0 2.22.22 3.09.51l-.05 2.18h-1.35V34.2c-.18-.1-.99-.3-1.82-.3-1.06 0-1.86.44-1.86 1.26 0 1.93 5.52 1.06 5.52 4.24 0 1.71-1.42 2.77-3.84 2.77-1.4 0-2.66-.38-3.53-1.04l.05-1.97h1.38l.04 1.2zm16.84 1.53c-.11.04-.76.25-1.44.25-.86 0-1.53-.4-1.53-1.71v-.03c-.55.96-1.57 1.78-2.99 1.78-1.91 0-3.51-1.37-3.51-4.68 0-3.4 2.17-4.82 4.44-4.82.86 0 1.6.15 2.06.35V28.5l1.78-.13V40.1c0 .6.22.73.56.73.31 0 .55-.13.55-.13l.08 1.19zM77.8 34.3c-.4-.25-1.13-.42-1.8-.42-1.4 0-2.91 1-2.91 3.5 0 2.64 1.09 3.5 2.38 3.5 1.38 0 2.29-1.33 2.33-2.17V34.3zm12.26 6.57a6.11 6.11 0 0 1-3.8 1.31c-2.29 0-4.35-1.31-4.35-4.75s2.04-4.81 4.33-4.81 3.77 1.42 3.77 4.35l-6.32 1.33c.31 1.84 1.55 2.46 2.86 2.46 1.26 0 2.24-.47 2.95-1.06l.56 1.17zm-1.87-4.77c0-1.37-.84-2.15-2.06-2.15-1.26 0-2.46.86-2.51 3.19l4.57-1.04zm5.68-1.82c.64-.91 1.73-1.6 3.33-1.6 1.86 0 2.95 1 2.95 3.22v6.06h-1.78v-5.72c0-1.53-.55-2.26-1.75-2.26-1.8 0-2.66 1.47-2.66 2.37v5.61h-1.77V34.1l-1.17-.05v-1.13h2.73l.12 1.36zm15.07 5.48c.38.6.78 1.07 1.35 1.07.31 0 .47-.09.47-.09v1.18s-.42.15-1.04.15c-.96 0-1.57-.58-2.06-1.38l-1.62-2.57h-1.47v3.82h-1.77V28.49l1.77-.13v8.41h1.49l2.28-3.86h1.82l-2.68 4.53 1.46 2.32zm4.93-5.55c.67-.86 1.71-1.53 3.13-1.53 1.27 0 2.13.56 2.49 1.71.66-.95 1.75-1.71 3.26-1.71 1.73 0 2.71 1.02 2.71 3.22v6.06h-1.78v-5.72c0-1.51-.55-2.24-1.57-2.24-1.58 0-2.42 1.51-2.42 2.31v5.64h-1.77v-5.72c0-1.51-.56-2.24-1.57-2.24-1.6 0-2.42 1.53-2.42 2.31v5.64h-1.77V34.1l-1.17-.05v-1.13h2.73l.15 1.29zm21.82 7.59s-.53.36-1.29.36c-.93 0-1.46-.55-1.46-1.51v-.07c-.64.98-1.6 1.6-2.82 1.6-1.46 0-2.6-.91-2.6-2.46 0-3.28 5.19-2.75 5.3-3.71v-.15c0-1.35-.31-1.88-1.66-1.88-1 0-1.89.29-2.62.6l-.46-1.27c.89-.33 1.98-.64 3.31-.64 2.22 0 3.17.87 3.17 2.93v4.61c0 .4.13.55.42.55.25 0 .55-.13.55-.13l.16 1.17zm-2.87-4.44c-1.26.58-3.5.53-3.5 2.15 0 .8.51 1.35 1.38 1.35.95 0 1.71-.67 2.11-1.57v-1.93zm6.4 2.54c0 .49.31.71.71.71.49 0 .84-.18.84-.18l.07 1.4c-.11.05-.76.31-1.62.31-1 0-1.77-.62-1.77-1.82V28.45l1.77-.13V39.9zm10.99 1.9s-.53.36-1.29.36c-.93 0-1.46-.55-1.46-1.51v-.07c-.64.98-1.6 1.6-2.82 1.6-1.46 0-2.6-.91-2.6-2.46 0-3.28 5.19-2.75 5.3-3.71v-.15c0-1.35-.31-1.88-1.66-1.88-1 0-1.89.29-2.62.6l-.46-1.27c.89-.33 1.98-.64 3.31-.64 2.22 0 3.17.87 3.17 2.93v4.61c0 .4.13.55.42.55.25 0 .55-.13.55-.13l.16 1.17zm-2.87-4.44c-1.26.58-3.5.53-3.5 2.15 0 .8.51 1.35 1.38 1.35.95 0 1.71-.67 2.11-1.57v-1.93zm6.62-3.15c.67-.86 1.71-1.53 3.13-1.53 1.27 0 2.13.56 2.49 1.71.66-.95 1.75-1.71 3.26-1.71 1.73 0 2.71 1.02 2.71 3.22v6.06h-1.78v-5.72c0-1.51-.55-2.24-1.57-2.24-1.58 0-2.42 1.51-2.42 2.31v5.64h-1.77v-5.72c0-1.51-.56-2.24-1.57-2.24-1.6 0-2.42 1.53-2.42 2.31v5.64h-1.77V34.1l-1.17-.05v-1.13h2.73l.15 1.29zm18.89 7.61s-.78.33-1.95.33c-1.58 0-2.64-.67-2.64-2.69V34.1h-1.42l.16-1.18h1.26V31.3l1.77-.76v2.38h2.66v1.18h-2.66v5.35c0 1.11.62 1.42 1.35 1.42.67 0 1.38-.27 1.38-.27l.09 1.22z"/></g></g></svg>